<?xml version="1.0" encoding="UTF-8"?>
<!DOCTYPE svg PUBLIC "-//W3C//DTD SVG 1.1//EN" "http://www.w3.org/Graphics/SVG/1.1/DTD/svg11.dtd">
<!-- Creator: CorelDRAW 2019 (64-Bit) -->
<svg xmlns="http://www.w3.org/2000/svg" xml:space="preserve" width="185.836mm" height="51.9419mm" version="1.1" style="shape-rendering:geometricPrecision; text-rendering:geometricPrecision; image-rendering:optimizeQuality; fill-rule:evenodd; clip-rule:evenodd"
viewBox="0 0 18472.88 5163.25"
 xmlns:xlink="http://www.w3.org/1999/xlink">
 <defs>
  <style type="text/css">
   <![CDATA[
    .fil1 {fill:#00AFEF;fill-rule:nonzero}
    .fil3 {fill:#EBC113;fill-rule:nonzero}
    .fil2 {fill:#F9F057;fill-rule:nonzero}
    .fil0 {fill:white;fill-rule:nonzero}
   ]]>
  </style>
 </defs>
 <g id="__x0023_Layer_x0020_1">
  <metadata id="CorelCorpID_0Corel-Layer"/>
  <g id="_1542306791728">
   <path class="fil0" d="M2099.17 202.8c88.11,-87.5 196.8,-175.61 329.39,-164.18 112.22,-1.24 198.45,81.67 264.34,162.92 -80.85,14.55 -162.92,10.39 -243.76,0 -113.47,-18.91 -210.31,63.39 -322.32,63.8 -9.15,-20.98 -18.5,-41.77 -27.64,-62.55z"/>
   <path class="fil0" d="M4050.96 304.83c115.96,-94.76 288.65,-90.81 415.83,-20.57 46.34,20.78 38.02,78.55 46.13,119.9 -180.8,-17.66 -362.85,-5.61 -536.16,50.91 15.17,-53.4 27.23,-114.5 74.2,-150.25z"/>
   <path class="fil0" d="M2493.19 1301.93c108.89,-35.55 238.15,-47.18 340.18,13.92 45.1,22.65 52.17,76.68 66.92,119.7 -93.52,7.49 -184.54,-24.31 -277.23,-19.95 -93.3,23.9 -181.01,80.42 -281.58,59.02 33.46,-69.4 72.73,-147.34 151.71,-172.69z"/>
  </g>
  <g id="_1542306796816">
   <path class="fil1" d="M8198.21 796.59c315.25,-286.57 718.61,-468.01 1137.36,-537.62 163.13,-22.65 328.55,-10.19 492.73,-14.14 225.06,-6.65 459.27,52.79 635.49,197.22 216.33,188.49 333.54,475.9 345.81,759.35 7.48,152.74 -11.22,305.06 -11.02,457.6 -0.42,172.49 -42.59,341.24 -91.85,505.41 -95.18,304.64 -212.18,607.23 -396.92,869.9 -113.47,165.63 -264.75,299.66 -413.76,432.04 77.72,125.53 173.32,245.22 302.38,320.66 109.1,63.8 238.57,67.13 360.55,83.13 -77.31,132.58 -168.12,280.54 -324.4,326.88 -180.8,31.8 -395.47,13.31 -527.64,-128.63 -96.42,-120.12 -120.32,-279.72 -206.15,-406.9 -187.03,-0.63 -373.01,45.31 -560.04,19.95 -145.06,-22.45 -293.44,-67.95 -402.12,-171.04 -153.79,-134.65 -240.03,-338.1 -240.03,-541.56 -32.83,-609.94 122.81,-1224.85 424.15,-1754.78 127.18,-215.71 287.2,-428.71 521.82,-534.5 162.3,-78.34 346.83,-48.21 519.12,-32.62 -165.22,149.01 -288.66,337.91 -390.28,534.29 -190.14,387.58 -319.82,803.82 -396.09,1228.39 -35.95,194.09 -42.6,391.51 -41.56,588.51 237.32,-21.61 477.34,-1.66 703.86,74.61 155.65,-200.75 263.5,-432.88 355.99,-668.12 137.98,-363.88 230.25,-749.79 224.23,-1140.89 -3.12,-212.18 31.37,-445.56 -88.53,-634.25 -99.54,-166.25 -304.45,-232.33 -488.99,-234.83 -269.33,-4.77 -539.06,68.38 -774.1,198.88 -417.49,238.78 -680.17,752.49 -561.71,1229.63 -150.25,-8.31 -319.41,-57.15 -394.43,-199.5 -48.84,-122.4 -28.06,-260.18 6.02,-383.62 54.03,-168.11 153.15,-321.27 280.13,-443.46zm803.41 2305.27l0 0c12.26,65.67 10.18,144.22 64.84,192.23 74.39,75.22 190.14,50.91 285.32,56.31 12.06,-36.15 24.11,-72.11 36.16,-108.27 -110.98,-85.62 -242.73,-147.96 -386.33,-140.27z"/>
  </g>
  <path class="fil1" d="M13870.67 532.87c120.75,-25.56 261.64,-13.72 354.53,75.85 140.7,118.46 154.62,353.7 30.35,488.57 -133,140.07 -376.77,149.83 -520.99,22.03 -60.89,-60.89 -92.68,-146.08 -104.12,-230.05 -12.05,-153.78 90.61,-312.55 240.23,-356.39z"/>
  <g id="_1542306799472">
   <path class="fil1" d="M6033.58 1152.9c193.05,-78.76 410.64,-96.21 614.71,-53.62 134.25,29.93 267.87,133.84 280.55,279.31 16.42,136.32 12.68,278.26 -32.42,408.97 -110.35,291.56 -370.95,508.31 -665,599.34 -116.17,38.03 -238.79,48.42 -359.94,57.57 -11,144.22 -36.15,298.84 27.44,435.16 53.62,122.81 203.24,182.04 330.21,151.28 163.76,-36.15 307.15,-128.64 449.3,-213.42 -56.94,182.46 -132.59,375.93 -296.34,488.98 -240.44,168.33 -562.76,164.59 -830.62,69.21 -226.52,-83.55 -351.41,-331.67 -353.29,-563.18 -10.81,-447.42 109.32,-907.31 374.28,-1271.82 124.89,-157.52 269.95,-312.34 461.14,-387.78zm169.99 356.2l0 0c-139.44,239.81 -264.14,497.71 -294.68,776.8 406.9,-46.54 731.51,-438.89 711.77,-845.17 -11.64,-64.84 -46.34,-143.6 -108.9,-169.38 -125.94,39.28 -243.55,120.54 -308.18,237.75z"/>
  </g>
  <path class="fil1" d="M11176.58 1438.3c213.63,-4.35 427.06,0.42 640.69,0.42 -102.04,543.23 -252.29,1075.85 -365.13,1616.79 -22.45,88.52 0,193.05 72.94,251.87 85.21,31.79 187.66,10.6 255.4,-49.67 112.44,-94.34 171.24,-235.24 209.69,-373.23 121.98,-473.81 220.7,-953.24 333.74,-1429.34 214.05,2.91 427.89,6.23 641.93,6.65 -113.67,461.14 -204.48,927.68 -328.13,1386.32 -40.32,146.51 -42.19,299.25 -34.08,449.91 101.61,49.67 229.83,82.29 329.17,9.35 174.56,-126.35 243.76,-344.14 292.81,-544.48 98.3,-427.68 190.36,-857.02 298,-1282.62 214.88,-1.24 429.97,3.96 644.85,8.11 -121.15,468.62 -224.23,941.6 -336.86,1412.3 -23.48,102.86 -61.3,205.94 -51.54,313.17 5.83,62.76 41.98,129.05 104.94,149.41 165.01,42.6 348.3,-43.01 431.02,-190.15 95.38,-162.92 137.15,-349.54 176.21,-532.41 78.98,-379.48 176.03,-754.99 255.2,-1134.66 206.98,-3.12 413.75,0 620.53,9.34 1.03,51.96 2.69,103.91 4.98,156.07 151.29,-70.24 294.48,-169.99 463.84,-189.94 128.85,-10.81 273.28,1.87 373.86,92.06 82.29,69 120.32,172.07 175.6,260.81 28.89,10.4 49.25,-16.41 70.45,-31.17 114.71,-97.26 232.13,-203.86 382.59,-239.81 152.54,-34.7 319.61,-24.52 461.76,43.64 148.79,72.11 219.65,245.43 211.55,403.99 14.96,266 -68.37,522.65 -135.91,776.39 -51.54,180.18 -107.65,365.54 -92.28,555.07 3.74,57.35 40.74,114.5 99.75,126.13 77.72,16.42 157.94,14.34 236.9,20.79 -67.12,162.72 -175.6,336.86 -361.38,374.49 -151.07,20.78 -331.04,28.47 -450.74,-83.13 -138.61,-131.75 -169.38,-341.02 -144.43,-522.65 38.03,-240.44 108.9,-474.23 163.34,-711.35 41.35,-160.01 75.85,-326.06 56.94,-492.1 -12.26,-109.72 -147.75,-197 -248.13,-136.11 -182.67,99.96 -266.62,307.36 -311.71,500.2 -109.93,475.9 -218.2,952.41 -321.9,1429.75 -215.5,-0.63 -431.22,-2.08 -646.09,-16.62 118.45,-480.25 221.94,-964.04 336.24,-1445.55 38.03,-148.79 41.56,-303.2 28.26,-455.74 -69.2,-49.87 -161.67,-74.6 -238.15,-24.51 -198.25,115.33 -266.62,353.07 -316.28,562.13 -94.34,450.33 -209.06,896.09 -298,1347.66 -209.89,21.2 -420.41,-3.53 -630.5,-3.32 6.65,-81.67 12.67,-163.34 16.41,-245.22 -192.65,106.19 -397.34,213.42 -623.03,214.66 -98.71,-5.19 -201.99,-18.07 -288.86,-68.78 -103.28,-69.83 -156.06,-187.45 -217.37,-291.35 -147.96,127.18 -301.32,260.6 -495.01,310.26 -154.4,44.06 -330,38.24 -470.69,-43.64 -110.36,-74.81 -149.42,-210.73 -208.44,-323.56 -122.19,113.04 -224.64,258.72 -386.12,318.57 -136.32,47.18 -284.91,42.4 -426.02,24.11 -171.65,-21.19 -299.66,-181.83 -322.32,-346.84 -37.2,-259.14 43.64,-512.67 98.5,-762.88 85.63,-386.74 193.48,-768.9 261.02,-1159.6z"/>
  <path class="fil1" d="M6970.35 2536.15c26.81,-107.03 55.7,-213.42 85.84,-319.41 293.42,4.36 586.65,20.36 880.3,18.07 -12.06,106.19 -31.17,211.56 -53.2,316.09 -304.24,-1.24 -608.68,-4.16 -912.93,-14.75z"/>
  <path class="fil1" d="M17962.93 3227.37c84.17,-26.4 174.97,-25.78 262.05,-15.18 133.42,15.18 255.82,136.54 247.51,275.15 -0.21,72.94 6.86,151.91 -30.76,217.99 -40.53,82.51 -122.82,134.45 -207.61,162.31 -219.04,75.65 -481.3,-127.4 -459.48,-358.9 6.02,-117.62 81.46,-231.5 188.28,-281.37z"/>
  <g id="_1542306776048">
   <path class="fil1" d="M2335.25 6.63c203.24,-40.53 428.09,109.72 452.62,318.99 7.07,88.95 -8.94,183.5 -57.98,259.36 -105.36,155.02 -332.51,212.59 -498.13,123.64 -103.28,-55.48 -183.5,-160.22 -195.77,-278.46 -23.9,-188.91 106.19,-391.73 299.26,-423.52zm-236.08 196.17l0 0c9.15,20.78 18.5,41.56 27.64,62.55 112.01,-0.41 208.85,-82.7 322.32,-63.8 80.84,10.39 162.91,14.55 243.76,0 -65.89,-81.25 -152.12,-164.17 -264.34,-162.92 -132.59,-11.43 -241.27,76.68 -329.39,164.18z"/>
  </g>
  <g id="_1542306782864">
   <path class="fil1" d="M4226.97 193.66c124.68,-5.2 265.58,26.8 344.75,130.93 52.17,71.9 84.58,160.63 79.38,250.2 -3.95,166.67 -138.82,326.89 -307.56,343.3 -91.86,6.86 -188.49,6.66 -274.53,-29.92 -90.81,-41.35 -141.73,-137.99 -163.13,-231.09 -48.63,-206.57 91.44,-462.39 321.08,-463.42zm-176.02 111.17l0 0c-46.97,35.75 -59.03,96.85 -74.2,150.25 173.31,-56.52 355.36,-68.58 536.16,-50.91 -8.11,-41.35 0.21,-99.13 -46.13,-119.9 -127.18,-70.24 -299.87,-74.2 -415.83,20.57z"/>
  </g>
  <path class="fil1" d="M1034.54 632.76c159.19,-280.12 529.72,-453.03 837.07,-315.87 -234.42,-29.93 -502.7,-13.51 -678.5,164.58 -57.57,46.55 -60.07,123.86 -61.73,191.82 165.42,-51.13 287.2,-204.29 466.96,-212.19 107.23,-2.28 246.67,-10.39 310.68,94.97 85.83,138.2 200.54,257.28 342.27,338.53 19.12,142.14 68.37,308.39 -36.58,429.56 -137.57,-152.74 -278.46,-317.95 -478.17,-389.03 -250.42,-90.61 -522.02,-29.93 -769.74,39.9 7.28,-115.76 5.62,-239.82 67.74,-342.28z"/>
  <path class="fil1" d="M2910.89 275.54c167.71,-22.45 346.63,-32.01 502.08,46.54 351.82,158.15 505.18,635.7 315.46,970.7 -99.96,205.11 -311.72,327.72 -528.06,375.52 -29.51,-126.35 -53.62,-257.7 -121.36,-370.12 -62.14,-95.18 -156.06,-172.28 -264.96,-206.98 -130.09,-33.25 -265.17,-3.74 -393.81,22.45 -1.24,-65.26 -2.7,-130.51 -3.74,-195.56 129.46,-40.31 272.24,-72.72 367.42,-176.84 79.59,-78.77 113.04,-188.91 176.22,-278.89 78.55,-12.27 159.18,-12.05 238.36,-3.33 97.67,11.01 179.34,74.2 275.35,92.07 49.87,12.47 86.86,-31.8 123.44,-57.36 -182.87,-153.79 -430.59,-251.24 -668.95,-181.63 -5.82,-12.26 -11.63,-24.52 -17.46,-36.57z"/>
  <g id="_1542296408096">
   <path class="fil1" d="M2482.17 1257.66c96.21,-20.37 197.01,-20.79 293.85,-4.36 128.85,24.72 227.77,147.34 229.43,277.64 1.25,96.21 3.74,199.08 -40.73,287.4 -33.46,65.68 -122.81,85 -184.34,47.39 -163.97,-79.38 -312.34,-195.55 -429.13,-335.2 -69,-107.03 22.24,-240.23 130.92,-272.86zm11.02 44.26l0 0c-78.98,25.35 -118.25,103.28 -151.71,172.69 100.58,21.4 188.28,-35.12 281.58,-59.02 92.68,-4.36 183.71,27.44 277.23,19.95 -14.75,-43.02 -21.82,-97.05 -66.92,-119.7 -102.03,-61.09 -231.29,-49.46 -340.18,-13.92z"/>
  </g>
  <path class="fil1" d="M3384.92 1760.15c166.87,-47.18 293.63,-172.7 415.2,-289.49 51.33,27.43 103.49,53.62 155.87,79.38 -20.37,89.78 -43.23,180.17 -41.78,273.07 -2.9,116.99 66.92,217.37 117.63,317.53 -91.43,18.08 -192.02,50.09 -279.71,1.25 -216.33,-108.06 -461.55,-118.87 -694.72,-165.42 17.46,-45.72 32.21,-93.1 57.77,-135.29 82.29,-47.39 180.8,-50.71 269.74,-81.04z"/>
  <path class="fil1" d="M4705.77 1508.07c81.67,110.77 127.6,254.98 84.99,390.48 -44.06,189.73 -262.68,298 -444.92,252.08 -141.31,-31.38 -263.09,-159.39 -267.04,-307.36 -6.02,-84.58 9.76,-168.54 25.56,-251.04 28.26,26.81 51.12,58.6 76.47,88.32 66.5,-1.25 123.03,-43.64 187.04,-57.98 95.18,-30.34 195.13,-11.64 291.15,4.16 15.38,-39.69 30.96,-79.18 46.76,-118.66z"/>
  <path class="fil1" d="M2171.7 2147.1c88.32,-105.79 266.62,5.19 250.83,127.39 -8.31,40.32 -33.46,73.98 -56.1,107.44 -119.91,162.72 -259.15,309.85 -386.53,466.54 -92.68,115.96 -213.42,219.24 -246.46,370.95 36.78,5.4 73.98,29.09 111.38,17.86 59.23,-30.13 98.09,-86.23 140.69,-135.28 176.22,-205.32 348.29,-414.59 521.41,-622.61 60.89,-69.83 113.68,-153.57 199.09,-195.56 69,-32.82 187.24,-7.68 197.22,80.64 19.74,79.18 -23.49,152.74 -73.57,210.3 -232.13,287.2 -471.73,568.17 -704.91,854.32 -34.49,44.89 -74.81,97.88 -58.6,158.36 5.4,46.13 72.11,75.85 99.95,30.55 225.69,-235.45 411.06,-505.61 621.78,-753.94 48.21,-56.11 99.95,-129.67 183.28,-125.73 103.29,-14.14 187.67,109.51 144.23,201.57 -41.77,103.28 -125.31,181.01 -194.31,266.01 -308.6,364.3 -613.67,731.29 -920.6,1096.84 -60.06,68.16 -100.38,150.45 -132.59,234.82 229.43,0.21 435.99,-128.01 664.16,-130.3 134.88,7.07 215.3,135.5 252.91,251.66 -513.92,159.39 -1033.04,301.74 -1550.07,450.75 -140.28,46.96 -290.53,67.34 -437.24,43.64 -209.47,-35.53 -376.15,-179.13 -529.72,-315.88 -157.94,-142.76 -261.64,-347.04 -266.84,-561.51 -10.18,-174.77 51.96,-348.71 159.81,-485.03 400.04,-492.31 825.43,-963.43 1217.58,-1462.18 63.38,-74.19 128.63,-179.96 240.64,-170.4 103.5,-3.13 170.62,130.5 119.49,216.53 -120.11,225.06 -349.54,376.77 -438.07,621.16 67.74,-1.04 149.83,11.64 196.38,-50.5 233.16,-258.94 438.69,-541.98 674.77,-798.42z"/>
  <path class="fil1" d="M4551.58 2443.02c149,140.07 266.62,332.3 260.81,542.82 4.15,188.9 -79.39,374.27 -217.8,501.65 -95.59,98.92 -223.82,153.78 -350.37,200.54 8.1,-410.22 33.04,-840.6 -141.73,-1223.81 149.62,22.03 288.23,84.17 430.17,132.37 6.03,-51.32 12.06,-102.45 18.92,-153.57z"/>
  <g id="_1542296397184">
   <g>
    <path class="fil2" d="M1118.5 1072.09c254.37,-89.99 554.45,-56.94 771.61,107.23 160.86,120.53 227.78,321.48 374.49,455.53 207.4,227.96 480.05,398.79 781.8,467.16 230.46,54.04 481.7,53.62 687.86,183.5 149.62,84.36 256.03,229.84 314.62,389.23 101.42,265.59 79.8,565.67 -23.9,827.31 -120.95,353.27 -402.95,639.44 -740.64,791.77 -307.98,138.82 -711.35,77.1 -933.5,-187.24 254.78,-362.22 575.43,-672.07 834.16,-1031.38 56.94,-71.7 97.05,-167.91 61.09,-258.52 -42.8,-117.83 -165.84,-168.75 -248.54,-251.87 -17.04,-112.64 16.83,-250.83 -80.64,-335.62 -106.39,-90.82 -257.48,-38.02 -382.17,-29.92 -63.17,-60.69 -116.79,-137.16 -198.25,-174.15 -80.84,-20.16 -175.39,-13.51 -241.47,41.98 -74.6,61.92 -131.55,141.93 -198.67,211.55 -55.7,-74.6 -105.36,-159.81 -186.2,-210.31 -86.86,-26.39 -189.11,-19.32 -262.87,37.82 -94.77,71.9 -165.22,169.37 -239.2,261.42 -76.47,99.54 -160.22,193.06 -234.83,294.06 -57.36,-54.65 -133.83,-70.24 -210.3,-55.49 23.27,60.06 46.75,120.12 70.03,180.38 20.78,-15.99 41.77,-31.79 62.35,-48 -82.3,110.98 -166.46,221.74 -259.98,323.57 -20.98,34.29 -59.85,13.29 -83.96,-4.78 -156.48,-117.21 -256.44,-298.42 -299.25,-487.11 -120.12,-618.66 262.88,-1300.92 866.37,-1498.12zm-1.87 744.59l0 0c-33.04,79.18 -13.09,169.58 -15.17,253.53 64.22,13.51 128.84,36.37 195.34,31.17 111.18,-21.61 177.89,-172.9 99.54,-263.09 -58.6,-95.59 -206.77,-103.28 -279.71,-21.61zm2256.22 1367.42l0 0c-125.1,28.47 -190.98,210.3 -86.86,297.99 92.27,89.57 287.62,37 290.11,-101.62 17.25,-112.63 -95.39,-210.1 -203.25,-196.37z"/>
   </g>
   <path class="fil2" d="M2232.18 4209.23c71.9,10.19 121.56,63.59 162.72,118.66 -90.4,23.69 -182.25,41.56 -275.35,50.91 36.78,-57.15 74.39,-113.47 112.64,-169.57z"/>
  </g>
  <g id="_1542302924912">
   <path class="fil3" d="M1116.63 1816.67c72.94,-81.67 221.12,-73.98 279.71,21.61 78.35,90.19 11.64,241.48 -99.54,263.09 -66.5,5.2 -131.12,-17.66 -195.34,-31.17 2.08,-83.95 -17.87,-174.36 15.17,-253.53z"/>
   <path class="fil3" d="M762.94 2606.15c76.47,-14.75 152.94,0.83 210.3,55.49 -25.77,25.78 -49.87,53.62 -77.92,76.89 -20.58,16.21 -41.57,32.01 -62.35,48 -23.28,-60.26 -46.76,-120.32 -70.03,-180.38z"/>
   <path class="fil3" d="M219.71 2931.8c100.17,68.78 204.69,141.52 268.07,247.92 15.38,22.64 -10.39,47.79 -18.28,68.99 -40.32,66.5 -101.62,116.38 -156.07,170.62 -62.34,-154.61 -103.07,-319.82 -93.72,-487.53z"/>
   <path class="fil3" d="M3372.85 3184.09c107.86,-13.73 220.5,83.75 203.25,196.37 -2.5,138.62 -197.84,191.19 -290.11,101.62 -104.12,-87.69 -38.24,-269.53 86.86,-297.99z"/>
   <path class="fil3" d="M3829.63 4051.49c95.17,-116.79 179.96,-241.68 276.6,-357.23 -16.84,342.48 -154,679.35 -395.9,924.57 -199.08,207.39 -470.9,351.82 -760.38,370.73 -147.34,8.73 -295.09,-27.63 -422.69,-100.79 110.97,-47.18 234.41,-70.03 334.99,-139.44 61.93,-67.13 34.92,-169.57 51.12,-252.7 345.59,-27.85 689.53,-177.69 916.25,-445.14z"/>
  </g>
 </g>
</svg>
