<?xml version="1.0" encoding="UTF-8" ?>
<!DOCTYPE svg PUBLIC "-//W3C//DTD SVG 1.1//EN" "http://www.w3.org/Graphics/SVG/1.1/DTD/svg11.dtd">
<svg width="426pt" height="357pt" viewBox="0 0 426 357" version="1.1" xmlns="http://www.w3.org/2000/svg">
<g id="#fefeffff">
<path fill="#fefeff" opacity="1.00" d=" M 0.00 0.00 L 426.00 0.00 L 426.00 357.00 L 0.00 357.00 L 0.00 0.00 M 160.57 110.60 C 154.97 115.83 151.09 123.67 152.79 131.44 C 154.62 135.67 159.27 137.02 163.52 136.94 C 160.94 128.23 163.98 118.59 169.82 111.86 C 175.79 104.86 185.02 101.52 193.97 100.63 C 199.02 100.39 204.99 101.53 207.98 106.03 C 211.15 110.72 210.52 116.62 210.66 121.99 C 210.97 132.76 208.35 143.41 204.50 153.40 C 202.41 158.23 200.34 163.19 196.97 167.29 C 191.41 165.32 185.54 164.94 179.73 165.81 C 179.13 154.67 181.56 143.61 184.80 133.01 C 187.95 123.43 192.01 113.76 199.34 106.58 C 195.26 106.42 190.95 105.64 187.05 107.19 C 180.35 110.03 175.94 116.27 172.59 122.48 C 165.33 136.49 161.94 152.67 163.79 168.40 C 165.01 175.52 170.76 181.85 178.10 182.72 C 183.32 184.20 188.57 182.34 193.82 182.34 C 196.38 185.22 196.68 189.68 199.51 192.49 C 202.89 195.87 208.13 196.19 212.59 195.39 C 216.69 194.04 218.98 190.12 220.97 186.59 C 217.98 186.38 214.83 186.47 212.10 185.05 C 208.63 183.36 206.13 180.30 204.06 177.14 C 206.09 175.14 208.18 173.20 210.13 171.11 C 215.21 165.78 218.41 158.99 221.00 152.19 C 223.47 145.04 225.88 137.66 225.64 130.00 C 225.51 123.97 226.37 117.64 223.92 111.94 C 221.97 106.58 218.44 101.51 213.18 98.99 C 206.67 95.72 199.17 96.14 192.12 96.51 C 180.52 97.86 169.18 102.64 160.57 110.60 M 301.43 101.63 C 296.83 103.26 294.01 109.11 296.40 113.58 C 298.32 119.29 306.45 120.26 310.65 116.62 C 314.72 113.47 314.65 106.57 310.58 103.46 C 308.21 101.01 304.53 100.99 301.43 101.63 M 37.47 130.47 C 27.79 139.47 23.68 153.11 23.49 166.02 C 23.17 172.79 26.45 180.32 33.30 182.55 C 39.84 184.52 47.69 184.50 53.44 180.38 C 57.83 177.37 59.70 172.17 61.08 167.27 C 57.29 169.80 53.36 172.37 48.82 173.27 C 46.59 173.77 44.36 172.71 42.68 171.31 C 39.62 167.91 40.48 163.03 40.57 158.85 C 50.32 158.77 60.12 153.47 64.65 144.68 C 67.21 140.42 66.95 135.18 66.32 130.44 C 64.97 126.24 60.20 124.20 56.06 124.30 C 49.37 123.75 42.36 125.77 37.47 130.47 M 339.83 129.30 C 339.73 127.97 339.64 126.65 339.57 125.32 C 334.29 125.42 329.02 125.27 323.75 125.50 C 322.46 133.32 320.52 141.01 319.06 148.80 C 317.68 154.95 317.09 161.43 314.08 167.08 C 312.08 170.94 307.49 173.40 303.17 172.20 C 300.61 170.89 300.27 167.70 301.06 165.23 C 304.00 151.95 306.59 138.59 309.68 125.36 C 304.21 125.36 298.75 125.38 293.28 125.37 C 291.02 135.14 289.05 144.97 287.07 154.80 C 285.98 160.14 284.81 165.85 281.09 170.05 C 278.87 172.80 274.20 173.45 271.58 170.97 C 270.80 166.60 271.64 162.16 272.70 157.91 C 275.37 147.12 277.12 136.14 279.71 125.33 C 274.24 125.38 268.77 125.38 263.30 125.37 C 260.62 137.65 258.39 150.04 255.45 162.26 C 254.11 166.98 250.98 173.37 245.06 172.38 C 242.74 171.27 242.19 168.35 242.66 166.04 C 245.13 152.43 248.80 139.04 250.87 125.37 C 245.49 125.36 240.10 125.29 234.72 125.51 C 233.08 135.23 230.73 144.81 228.74 154.46 C 227.63 160.51 225.69 166.56 226.46 172.78 C 226.69 177.21 229.80 181.61 234.24 182.57 C 237.34 182.91 240.51 182.93 243.60 182.45 C 248.60 181.39 251.96 177.24 255.12 173.56 C 256.62 177.10 258.32 181.38 262.41 182.52 C 270.60 185.16 278.96 180.40 284.27 174.35 C 286.31 177.52 288.07 181.77 292.24 182.51 C 299.49 184.69 306.74 181.28 312.72 177.39 C 312.56 179.49 312.39 181.58 312.23 183.68 C 317.57 183.65 322.93 183.76 328.27 183.53 C 330.11 173.20 332.54 162.98 334.47 152.67 C 335.55 147.31 336.50 141.53 340.22 137.28 C 342.16 135.02 346.00 133.26 348.25 136.12 C 349.36 140.72 348.21 145.45 347.26 149.98 C 344.83 161.19 342.69 172.46 340.16 183.65 C 345.65 183.67 351.14 183.68 356.64 183.62 C 358.87 172.64 361.06 161.65 363.36 150.68 C 364.38 145.65 365.47 140.10 369.46 136.50 C 370.99 135.04 373.57 133.66 375.44 135.37 C 378.46 137.16 377.60 141.10 377.52 144.03 C 376.29 151.80 374.04 159.37 372.72 167.12 C 372.07 171.73 372.44 176.79 375.56 180.50 C 378.33 184.20 383.52 184.00 387.62 183.44 C 392.49 182.43 395.41 177.92 396.91 173.53 C 394.13 173.16 389.76 174.28 388.56 170.93 C 387.53 163.83 390.63 157.06 391.95 150.21 C 393.30 143.72 395.19 136.29 391.76 130.14 C 388.99 125.55 382.96 124.86 378.10 125.45 C 372.82 125.88 369.11 130.05 365.29 133.23 C 363.36 129.01 360.24 124.21 355.00 124.32 C 349.34 123.36 344.47 126.62 339.83 129.30 M 96.32 148.34 C 95.66 151.11 95.00 153.89 94.27 156.65 C 101.99 156.60 109.72 156.67 117.44 156.60 C 117.93 153.85 118.46 151.10 118.89 148.34 C 111.36 148.33 103.84 148.34 96.32 148.34 M 405.47 166.54 C 402.61 167.84 400.47 170.91 400.45 174.09 C 399.87 180.45 407.91 185.75 413.50 182.42 C 418.74 180.26 420.39 172.67 416.36 168.65 C 413.76 165.37 409.12 166.17 405.47 166.54 M 216.54 207.74 C 209.71 209.35 206.94 218.95 212.33 223.66 C 217.46 229.42 228.50 225.73 228.61 217.87 C 229.72 211.34 222.60 206.01 216.54 207.74 M 262.46 211.61 C 255.72 213.56 254.08 223.36 259.06 227.92 C 261.09 230.05 264.28 229.75 266.97 229.71 C 273.20 229.68 277.45 221.85 274.34 216.52 C 272.70 211.68 266.87 210.69 262.46 211.61 M 231.23 214.09 C 231.44 214.40 231.87 215.02 232.09 215.33 C 237.87 213.23 243.73 215.67 248.36 219.16 C 246.94 222.11 244.04 220.07 241.89 219.29 C 239.02 217.83 235.75 218.42 232.68 218.54 C 231.14 221.58 229.85 224.96 227.07 227.10 C 224.74 228.76 221.90 229.47 219.25 230.46 C 219.38 232.20 219.51 233.96 219.66 235.71 C 223.65 234.51 228.30 233.40 232.04 235.94 C 236.97 238.39 238.15 244.12 239.33 248.97 C 245.03 247.85 250.35 244.27 252.80 238.89 C 257.13 230.39 253.01 218.70 244.19 214.96 C 240.16 212.96 235.52 213.39 231.23 214.09 M 184.86 223.76 C 183.03 226.48 183.36 229.86 183.19 232.96 C 189.10 231.09 195.53 229.31 201.67 231.18 C 207.02 232.72 211.09 236.72 214.50 240.93 C 217.93 237.95 215.92 233.40 215.43 229.62 C 211.81 228.04 209.07 225.19 207.03 221.86 C 205.49 218.92 201.81 219.31 199.02 219.35 C 194.46 219.27 191.60 223.50 187.48 224.76 C 187.42 223.04 187.57 221.15 189.10 220.05 C 193.96 215.59 201.02 214.77 207.21 216.49 C 199.36 211.56 189.10 216.28 184.86 223.76 M 188.44 234.39 C 172.39 239.10 162.32 257.67 166.33 273.74 C 167.83 278.72 170.87 283.57 175.60 286.02 C 177.53 283.64 179.47 281.27 181.20 278.74 C 182.33 277.38 183.46 276.02 184.57 274.65 C 187.66 271.01 190.36 267.06 193.36 263.36 C 195.14 261.14 197.71 259.08 200.73 259.45 C 203.97 259.58 205.47 262.85 207.16 265.11 C 209.77 262.51 211.78 258.05 216.00 258.15 C 219.23 257.74 221.08 260.81 223.16 262.70 C 226.28 262.39 230.22 260.61 232.71 263.38 C 235.12 265.51 234.51 268.92 234.53 271.77 C 238.50 273.56 243.56 277.68 240.53 282.48 C 234.29 292.23 225.82 300.36 219.41 310.00 C 222.95 314.89 229.25 316.64 235.03 316.48 C 240.87 316.27 246.15 313.25 250.60 309.68 C 257.42 304.46 261.33 296.21 262.89 287.93 C 264.27 279.25 261.68 268.97 253.79 264.14 C 248.09 260.37 240.99 260.82 234.60 259.25 C 224.66 256.76 216.06 249.91 210.66 241.30 C 205.96 234.21 196.28 231.91 188.44 234.39 M 221.52 238.66 C 218.86 239.66 216.36 242.39 217.61 245.39 C 220.86 249.14 224.93 252.31 229.48 254.34 C 231.98 255.59 234.35 253.00 234.52 250.62 C 234.79 247.41 235.38 243.59 232.90 241.06 C 230.28 237.54 225.33 238.11 221.52 238.66 M 254.27 243.40 C 252.10 245.54 249.99 247.80 247.38 249.42 C 244.39 251.26 240.81 251.54 237.56 252.69 C 236.55 253.75 236.45 255.32 235.98 256.65 C 241.81 257.93 248.01 257.80 253.46 260.51 C 255.80 262.00 258.38 260.71 260.79 260.16 C 259.62 258.17 258.28 256.23 257.68 253.99 C 257.18 251.07 257.93 248.17 258.52 245.34 C 257.10 244.70 255.68 244.05 254.27 243.40 M 276.80 243.77 C 276.56 244.57 276.08 246.17 275.84 246.98 C 271.82 245.85 267.74 246.48 264.30 248.85 C 263.58 247.88 262.87 246.91 262.15 245.95 C 260.98 249.72 260.42 254.51 263.44 257.57 C 267.37 262.40 275.83 261.29 278.73 255.91 C 280.63 251.94 279.99 246.89 276.80 243.77 M 214.07 261.03 C 208.29 267.63 203.16 274.80 197.51 281.52 C 196.51 283.11 194.46 282.62 192.88 282.90 C 195.05 276.87 200.54 272.94 203.49 267.38 C 204.80 264.91 202.89 261.37 199.97 261.62 C 196.96 261.72 195.52 264.79 193.75 266.75 C 184.46 279.07 174.34 290.71 164.87 302.88 C 161.04 307.48 159.66 314.05 161.48 319.77 C 163.01 326.25 168.59 330.60 173.77 334.24 C 178.59 337.62 184.91 338.36 190.45 336.45 C 203.88 332.35 217.34 328.31 230.67 323.90 C 230.10 320.26 227.02 316.93 223.11 317.41 C 217.87 318.11 213.06 320.71 207.74 321.06 C 208.60 318.94 209.70 316.92 211.15 315.14 C 219.47 304.81 227.72 294.42 236.11 284.14 C 237.60 282.29 239.42 279.66 237.83 277.31 C 236.56 274.70 232.76 274.89 231.17 277.06 C 225.16 283.99 220.29 291.88 213.96 298.53 C 211.50 298.36 211.92 295.47 213.15 294.14 C 219.18 286.20 225.64 278.58 231.64 270.61 C 233.56 268.61 233.11 264.14 229.85 264.02 C 227.69 263.46 225.86 265.07 224.64 266.64 C 219.11 273.46 213.76 280.42 208.09 287.12 C 207.17 288.48 205.23 289.41 203.99 287.87 C 204.42 284.64 207.17 282.46 208.98 279.96 C 212.64 275.20 216.79 270.79 220.08 265.76 C 222.19 262.30 216.89 258.04 214.07 261.03 M 273.46 266.90 C 273.36 268.33 273.25 269.76 273.14 271.20 C 269.53 269.94 265.98 268.37 262.14 268.00 C 266.79 277.59 266.55 288.41 266.33 298.79 C 274.31 296.87 281.01 289.47 280.53 281.01 C 280.82 275.37 277.25 270.66 273.46 266.90 M 165.61 281.49 C 165.37 285.88 166.37 290.21 168.28 294.15 C 170.12 292.40 172.26 290.66 172.85 288.05 C 170.98 285.34 168.23 283.41 165.61 281.49 M 253.15 311.18 C 247.78 316.12 240.71 318.69 233.54 319.51 C 233.25 321.70 234.22 324.65 232.18 326.16 C 229.59 327.63 226.68 328.38 223.95 329.56 C 232.28 334.41 242.79 331.60 249.94 325.92 C 258.15 319.49 263.31 309.20 263.17 298.73 C 259.68 302.75 257.26 307.69 253.15 311.18 M 213.49 317.46 C 216.06 317.03 218.60 316.44 221.12 315.76 C 219.92 314.53 218.98 312.72 217.08 312.57 C 215.34 313.73 214.52 315.73 213.49 317.46 Z" />
<path fill="#fefeff" opacity="1.00" d=" M 48.75 134.81 C 50.34 131.99 53.19 130.32 56.11 129.14 C 57.12 130.62 58.65 132.01 58.50 133.97 C 58.84 143.66 51.21 153.39 41.41 154.55 C 42.38 147.55 45.10 140.84 48.75 134.81 Z" />
<path fill="#fefeff" opacity="1.00" d=" M 181.31 168.59 C 185.00 168.04 188.29 169.61 191.04 171.91 C 190.81 172.56 190.34 173.85 190.10 174.50 C 187.72 174.24 184.69 175.21 182.94 173.07 C 181.53 172.00 181.66 170.14 181.31 168.59 Z" />
<path fill="#fefeff" opacity="1.00" d=" M 211.25 213.11 C 213.20 210.34 216.43 208.09 219.97 208.56 C 222.46 208.68 224.32 210.55 226.01 212.18 C 223.13 213.95 219.78 211.56 216.85 212.88 C 214.92 213.42 212.59 215.78 211.25 213.11 Z" />
<path fill="#fefeff" opacity="1.00" d=" M 258.36 218.32 C 258.15 212.78 265.50 211.24 269.57 213.27 C 271.16 213.55 272.35 215.31 271.10 216.71 C 266.73 216.08 262.41 216.50 258.36 218.32 Z" />
<path fill="#fefeff" opacity="1.00" d=" M 221.32 240.12 C 224.42 239.04 228.85 238.51 231.32 241.19 C 232.93 244.77 228.32 242.80 226.51 242.74 C 223.53 241.97 221.01 245.84 218.13 244.11 C 218.59 242.40 219.77 240.97 221.32 240.12 Z" />
</g>
<g id="#13b2d9ff">
<path fill="#13b2d9" opacity="1.00" d=" M 160.57 110.60 C 169.18 102.64 180.52 97.86 192.12 96.51 C 199.17 96.14 206.67 95.72 213.18 98.99 C 218.44 101.51 221.97 106.58 223.92 111.94 C 226.37 117.64 225.51 123.97 225.64 130.00 C 225.88 137.66 223.47 145.04 221.00 152.19 C 218.41 158.99 215.21 165.78 210.13 171.11 C 208.18 173.20 206.09 175.14 204.06 177.14 C 206.13 180.30 208.63 183.36 212.10 185.05 C 214.83 186.47 217.98 186.38 220.97 186.59 C 218.98 190.12 216.69 194.04 212.59 195.39 C 208.13 196.19 202.89 195.87 199.51 192.49 C 196.68 189.68 196.38 185.22 193.82 182.34 C 188.57 182.34 183.32 184.20 178.10 182.72 C 170.76 181.85 165.01 175.52 163.79 168.40 C 161.94 152.67 165.33 136.49 172.59 122.48 C 175.94 116.27 180.35 110.03 187.05 107.19 C 190.95 105.64 195.26 106.42 199.34 106.58 C 192.01 113.76 187.95 123.43 184.80 133.01 C 181.56 143.61 179.13 154.67 179.73 165.81 C 185.54 164.94 191.41 165.32 196.97 167.29 C 200.34 163.19 202.41 158.23 204.50 153.40 C 208.35 143.41 210.97 132.76 210.66 121.99 C 210.52 116.62 211.15 110.72 207.98 106.03 C 204.99 101.53 199.02 100.39 193.97 100.63 C 185.02 101.52 175.79 104.86 169.82 111.86 C 163.98 118.59 160.94 128.23 163.52 136.94 C 159.27 137.02 154.62 135.67 152.79 131.44 C 151.09 123.67 154.97 115.83 160.57 110.60 M 181.31 168.59 C 181.66 170.14 181.53 172.00 182.94 173.07 C 184.69 175.21 187.72 174.24 190.10 174.50 C 190.34 173.85 190.81 172.56 191.04 171.91 C 188.29 169.61 185.00 168.04 181.31 168.59 Z" />
<path fill="#13b2d9" opacity="1.00" d=" M 301.43 101.63 C 304.53 100.99 308.21 101.01 310.58 103.46 C 314.65 106.57 314.72 113.47 310.65 116.62 C 306.45 120.26 298.32 119.29 296.40 113.58 C 294.01 109.11 296.83 103.26 301.43 101.63 Z" />
<path fill="#13b2d9" opacity="1.00" d=" M 37.47 130.47 C 42.36 125.77 49.37 123.75 56.06 124.30 C 60.20 124.20 64.97 126.24 66.32 130.44 C 66.95 135.18 67.21 140.42 64.65 144.68 C 60.12 153.47 50.32 158.77 40.57 158.85 C 40.48 163.03 39.62 167.91 42.68 171.31 C 44.36 172.71 46.59 173.77 48.82 173.27 C 53.36 172.37 57.29 169.80 61.08 167.27 C 59.70 172.17 57.83 177.37 53.44 180.38 C 47.69 184.50 39.84 184.52 33.30 182.55 C 26.45 180.32 23.17 172.79 23.49 166.02 C 23.68 153.11 27.79 139.47 37.47 130.47 M 48.75 134.81 C 45.10 140.84 42.38 147.55 41.41 154.55 C 51.21 153.39 58.84 143.66 58.50 133.97 C 58.65 132.01 57.12 130.62 56.11 129.14 C 53.19 130.32 50.34 131.99 48.75 134.81 Z" />
<path fill="#13b2d9" opacity="1.00" d=" M 339.83 129.30 C 344.47 126.62 349.34 123.36 355.00 124.32 C 360.24 124.21 363.36 129.01 365.29 133.23 C 369.11 130.05 372.82 125.88 378.10 125.45 C 382.96 124.86 388.99 125.55 391.76 130.14 C 395.19 136.29 393.30 143.72 391.95 150.21 C 390.63 157.06 387.53 163.83 388.56 170.93 C 389.76 174.28 394.13 173.16 396.91 173.53 C 395.41 177.92 392.49 182.43 387.62 183.44 C 383.52 184.00 378.33 184.20 375.56 180.50 C 372.44 176.79 372.07 171.73 372.72 167.12 C 374.04 159.37 376.29 151.80 377.52 144.03 C 377.60 141.10 378.46 137.16 375.44 135.37 C 373.57 133.66 370.99 135.04 369.46 136.50 C 365.47 140.10 364.38 145.65 363.36 150.68 C 361.06 161.65 358.87 172.64 356.64 183.62 C 351.14 183.68 345.65 183.67 340.16 183.65 C 342.69 172.46 344.83 161.19 347.26 149.98 C 348.21 145.45 349.36 140.72 348.25 136.12 C 346.00 133.26 342.16 135.02 340.22 137.28 C 336.50 141.53 335.55 147.31 334.47 152.67 C 332.54 162.98 330.11 173.20 328.27 183.53 C 322.93 183.76 317.57 183.65 312.23 183.68 C 312.39 181.58 312.56 179.49 312.72 177.39 C 306.74 181.28 299.49 184.69 292.24 182.51 C 288.07 181.77 286.31 177.52 284.27 174.35 C 278.96 180.40 270.60 185.16 262.41 182.52 C 258.32 181.38 256.62 177.10 255.12 173.56 C 251.96 177.24 248.60 181.39 243.60 182.45 C 240.51 182.93 237.34 182.91 234.24 182.57 C 229.80 181.61 226.69 177.21 226.46 172.78 C 225.69 166.56 227.63 160.51 228.74 154.46 C 230.73 144.81 233.08 135.23 234.72 125.51 C 240.10 125.29 245.49 125.36 250.87 125.37 C 248.80 139.04 245.13 152.43 242.66 166.04 C 242.19 168.35 242.74 171.27 245.06 172.38 C 250.98 173.37 254.11 166.98 255.45 162.26 C 258.39 150.04 260.62 137.65 263.30 125.37 C 268.77 125.38 274.24 125.38 279.71 125.33 C 277.12 136.14 275.37 147.12 272.70 157.91 C 271.64 162.16 270.80 166.60 271.58 170.97 C 274.20 173.45 278.87 172.80 281.09 170.05 C 284.81 165.85 285.98 160.14 287.07 154.80 C 289.05 144.97 291.02 135.14 293.28 125.37 C 298.75 125.38 304.21 125.36 309.68 125.36 C 306.59 138.59 304.00 151.95 301.06 165.23 C 300.27 167.70 300.61 170.89 303.17 172.20 C 307.49 173.40 312.08 170.94 314.08 167.08 C 317.09 161.43 317.68 154.95 319.06 148.80 C 320.52 141.01 322.46 133.32 323.75 125.50 C 329.02 125.27 334.29 125.42 339.57 125.32 C 339.64 126.65 339.73 127.97 339.83 129.30 Z" />
<path fill="#13b2d9" opacity="1.00" d=" M 96.32 148.34 C 103.84 148.34 111.36 148.33 118.89 148.34 C 118.46 151.10 117.93 153.85 117.44 156.60 C 109.72 156.67 101.99 156.60 94.27 156.65 C 95.00 153.89 95.66 151.11 96.32 148.34 Z" />
<path fill="#13b2d9" opacity="1.00" d=" M 405.47 166.54 C 409.12 166.17 413.76 165.37 416.36 168.65 C 420.39 172.67 418.74 180.26 413.50 182.42 C 407.91 185.75 399.87 180.45 400.45 174.09 C 400.47 170.91 402.61 167.84 405.47 166.54 Z" />
<path fill="#13b2d9" opacity="1.00" d=" M 216.54 207.74 C 222.60 206.01 229.72 211.34 228.61 217.87 C 228.50 225.73 217.46 229.42 212.33 223.66 C 206.94 218.95 209.71 209.35 216.54 207.74 M 211.25 213.11 C 212.59 215.78 214.92 213.42 216.85 212.88 C 219.78 211.56 223.13 213.95 226.01 212.18 C 224.32 210.55 222.46 208.68 219.97 208.56 C 216.43 208.09 213.20 210.34 211.25 213.11 Z" />
<path fill="#13b2d9" opacity="1.00" d=" M 262.46 211.61 C 266.87 210.69 272.70 211.68 274.34 216.52 C 277.45 221.85 273.20 229.68 266.97 229.71 C 264.28 229.75 261.09 230.05 259.06 227.92 C 254.08 223.36 255.72 213.56 262.46 211.61 M 258.36 218.32 C 262.41 216.50 266.73 216.08 271.10 216.71 C 272.35 215.31 271.16 213.55 269.57 213.27 C 265.50 211.24 258.15 212.78 258.36 218.32 Z" />
<path fill="#13b2d9" opacity="1.00" d=" M 231.23 214.09 C 235.52 213.39 240.16 212.96 244.19 214.96 C 253.01 218.70 257.13 230.39 252.80 238.89 C 250.35 244.27 245.03 247.85 239.33 248.97 C 238.15 244.12 236.97 238.39 232.04 235.94 C 228.30 233.40 223.65 234.51 219.66 235.71 C 219.51 233.96 219.38 232.20 219.25 230.46 C 221.90 229.47 224.74 228.76 227.07 227.10 C 229.85 224.96 231.14 221.58 232.68 218.54 C 235.75 218.42 239.02 217.83 241.89 219.29 C 244.04 220.07 246.94 222.11 248.36 219.16 C 243.73 215.67 237.87 213.23 232.09 215.33 C 231.87 215.02 231.44 214.40 231.23 214.09 Z" />
<path fill="#13b2d9" opacity="1.00" d=" M 184.86 223.76 C 189.10 216.28 199.36 211.56 207.21 216.49 C 201.02 214.77 193.96 215.59 189.10 220.05 C 187.57 221.15 187.42 223.04 187.48 224.76 C 191.60 223.50 194.46 219.27 199.02 219.35 C 201.81 219.31 205.49 218.92 207.03 221.86 C 209.07 225.19 211.81 228.04 215.43 229.62 C 215.92 233.40 217.93 237.95 214.50 240.93 C 211.09 236.72 207.02 232.72 201.67 231.18 C 195.53 229.31 189.10 231.09 183.19 232.96 C 183.36 229.86 183.03 226.48 184.86 223.76 Z" />
<path fill="#13b2d9" opacity="1.00" d=" M 221.52 238.66 C 225.33 238.11 230.28 237.54 232.90 241.06 C 235.38 243.59 234.79 247.41 234.52 250.62 C 234.35 253.00 231.98 255.59 229.48 254.34 C 224.93 252.31 220.86 249.14 217.61 245.39 C 216.36 242.39 218.86 239.66 221.52 238.66 M 221.32 240.12 C 219.77 240.97 218.59 242.40 218.13 244.11 C 221.01 245.84 223.53 241.97 226.51 242.74 C 228.32 242.80 232.93 244.77 231.32 241.19 C 228.85 238.51 224.42 239.04 221.32 240.12 Z" />
<path fill="#13b2d9" opacity="1.00" d=" M 254.27 243.40 C 255.68 244.05 257.10 244.70 258.52 245.34 C 257.93 248.17 257.18 251.07 257.68 253.99 C 258.28 256.23 259.62 258.17 260.79 260.16 C 258.38 260.71 255.80 262.00 253.46 260.51 C 248.01 257.80 241.81 257.93 235.98 256.65 C 236.45 255.32 236.55 253.75 237.56 252.69 C 240.81 251.54 244.39 251.26 247.38 249.42 C 249.99 247.80 252.10 245.54 254.27 243.40 Z" />
<path fill="#13b2d9" opacity="1.00" d=" M 276.80 243.77 C 279.99 246.89 280.63 251.94 278.73 255.91 C 275.83 261.29 267.37 262.40 263.44 257.57 C 260.42 254.51 260.98 249.72 262.15 245.95 C 262.87 246.91 263.58 247.88 264.30 248.85 C 267.74 246.48 271.82 245.85 275.84 246.98 C 276.08 246.17 276.56 244.57 276.80 243.77 Z" />
<path fill="#13b2d9" opacity="1.00" d=" M 214.07 261.03 C 216.89 258.04 222.19 262.30 220.08 265.76 C 216.79 270.79 212.64 275.20 208.98 279.96 C 207.17 282.46 204.42 284.64 203.99 287.87 C 205.23 289.41 207.17 288.48 208.09 287.12 C 213.76 280.42 219.11 273.46 224.64 266.64 C 225.86 265.07 227.69 263.46 229.85 264.02 C 233.11 264.14 233.56 268.61 231.64 270.61 C 225.64 278.58 219.18 286.20 213.15 294.14 C 211.92 295.47 211.50 298.36 213.96 298.53 C 220.29 291.88 225.16 283.99 231.17 277.06 C 232.76 274.89 236.56 274.70 237.83 277.31 C 239.42 279.66 237.60 282.29 236.11 284.14 C 227.72 294.42 219.47 304.81 211.15 315.14 C 209.70 316.92 208.60 318.94 207.74 321.06 C 213.06 320.71 217.87 318.11 223.11 317.41 C 227.02 316.93 230.10 320.26 230.67 323.90 C 217.34 328.31 203.88 332.35 190.45 336.45 C 184.91 338.36 178.59 337.62 173.77 334.24 C 168.59 330.60 163.01 326.25 161.48 319.77 C 159.66 314.05 161.04 307.48 164.87 302.88 C 174.34 290.71 184.46 279.07 193.75 266.75 C 195.52 264.79 196.96 261.72 199.97 261.62 C 202.89 261.37 204.80 264.91 203.49 267.38 C 200.54 272.94 195.05 276.87 192.88 282.90 C 194.46 282.62 196.51 283.11 197.51 281.52 C 203.16 274.80 208.29 267.63 214.07 261.03 Z" />
<path fill="#13b2d9" opacity="1.00" d=" M 273.46 266.90 C 277.25 270.66 280.82 275.37 280.53 281.01 C 281.01 289.47 274.31 296.87 266.33 298.79 C 266.55 288.41 266.79 277.59 262.14 268.00 C 265.98 268.37 269.53 269.94 273.14 271.20 C 273.25 269.76 273.36 268.33 273.46 266.90 Z" />
</g>
<g id="#fde67cff">
<path fill="#fde67c" opacity="1.00" d=" M 188.44 234.39 C 196.28 231.91 205.96 234.21 210.66 241.30 C 216.06 249.91 224.66 256.76 234.60 259.25 C 240.99 260.82 248.09 260.37 253.79 264.14 C 261.68 268.97 264.27 279.25 262.89 287.93 C 261.33 296.21 257.42 304.46 250.60 309.68 C 246.15 313.25 240.87 316.27 235.03 316.48 C 229.25 316.64 222.95 314.89 219.41 310.00 C 225.82 300.36 234.29 292.23 240.53 282.48 C 243.56 277.68 238.50 273.56 234.53 271.77 C 234.51 268.92 235.12 265.51 232.71 263.38 C 230.22 260.61 226.28 262.39 223.16 262.70 C 221.08 260.81 219.23 257.74 216.00 258.15 C 211.78 258.05 209.77 262.51 207.16 265.11 C 205.47 262.85 203.97 259.58 200.73 259.45 C 197.71 259.08 195.14 261.14 193.36 263.36 C 190.36 267.06 187.66 271.01 184.57 274.65 C 183.72 274.07 182.87 273.49 182.03 272.92 C 181.24 273.08 179.65 273.42 178.86 273.59 C 179.61 275.32 180.38 277.04 181.20 278.74 C 179.47 281.27 177.53 283.64 175.60 286.02 C 170.87 283.57 167.83 278.72 166.33 273.74 C 162.32 257.67 172.39 239.10 188.44 234.39 M 189.40 252.29 C 185.72 252.92 187.20 257.29 187.00 259.90 C 189.43 260.46 192.71 262.03 194.40 259.26 C 197.58 256.00 193.53 250.53 189.40 252.29 M 244.36 286.42 C 242.04 287.41 240.24 290.03 241.31 292.57 C 242.60 296.41 249.41 296.00 249.87 291.81 C 250.63 288.68 247.32 285.90 244.36 286.42 Z" />
<path fill="#fde67c" opacity="1.00" d=" M 213.49 317.46 C 214.52 315.73 215.34 313.73 217.08 312.57 C 218.98 312.72 219.92 314.53 221.12 315.76 C 218.60 316.44 216.06 317.03 213.49 317.46 Z" />
</g>
<g id="#ecbf43ff">
<path fill="#ecbf43" opacity="1.00" d=" M 189.40 252.29 C 193.53 250.53 197.58 256.00 194.40 259.26 C 192.71 262.03 189.43 260.46 187.00 259.90 C 187.20 257.29 185.72 252.92 189.40 252.29 Z" />
<path fill="#ecbf43" opacity="1.00" d=" M 178.86 273.59 C 179.65 273.42 181.24 273.08 182.03 272.92 C 182.87 273.49 183.72 274.07 184.57 274.65 C 183.46 276.02 182.33 277.38 181.20 278.74 C 180.38 277.04 179.61 275.32 178.86 273.59 Z" />
<path fill="#ecbf43" opacity="1.00" d=" M 165.61 281.49 C 168.23 283.41 170.98 285.34 172.85 288.05 C 172.26 290.66 170.12 292.40 168.28 294.15 C 166.37 290.21 165.37 285.88 165.61 281.49 Z" />
<path fill="#ecbf43" opacity="1.00" d=" M 244.36 286.42 C 247.32 285.90 250.63 288.68 249.87 291.81 C 249.41 296.00 242.60 296.41 241.31 292.57 C 240.24 290.03 242.04 287.41 244.36 286.42 Z" />
<path fill="#ecbf43" opacity="1.00" d=" M 253.15 311.18 C 257.26 307.69 259.68 302.75 263.17 298.73 C 263.31 309.20 258.15 319.49 249.94 325.92 C 242.79 331.60 232.28 334.41 223.95 329.56 C 226.68 328.38 229.59 327.63 232.18 326.16 C 234.22 324.65 233.25 321.70 233.54 319.51 C 240.71 318.69 247.78 316.12 253.15 311.18 Z" />
</g>
</svg>
